<?xml version="1.0" standalone="no"?>
<!DOCTYPE svg PUBLIC "-//W3C//DTD SVG 20010904//EN"
 "http://www.w3.org/TR/2001/REC-SVG-20010904/DTD/svg10.dtd">
<svg version="1.0" xmlns="http://www.w3.org/2000/svg"
 width="437.000000pt" height="437.000000pt" viewBox="0 0 437.000000 437.000000"
 preserveAspectRatio="xMidYMid meet">
<metadata>
Created by potrace 1.11, written by Peter Selinger 2001-2013
</metadata>
<g transform="translate(0.000000,437.000000) scale(0.100000,-0.100000)"
fill="#000000" stroke="none">
<path d="M2995 3340 c-121 -16 -226 -48 -340 -104 -288 -143 -491 -398 -580
-728 -123 -457 28 -937 384 -1220 44 -35 77 -66 73 -70 -4 -4 -27 -11 -52 -17
-25 -5 -65 -15 -90 -21 -25 -6 -79 -16 -120 -20 -41 -5 -92 -16 -112 -24 -42
-18 -125 -21 -160 -6 -13 5 -122 14 -243 19 -200 9 -295 21 -295 38 0 4 34 38
75 76 80 73 146 159 189 244 30 61 33 94 9 116 -35 30 -173 98 -195 95 -15 -2
-36 -26 -66 -76 -64 -106 -139 -183 -219 -225 -107 -55 -169 -70 -288 -65 -94
3 -108 6 -181 42 -98 48 -175 124 -226 222 -40 76 -68 167 -68 221 l0 33 645
0 645 0 16 25 c34 52 -14 311 -82 449 -78 157 -219 299 -370 372 -185 89 -454
97 -644 21 -230 -93 -409 -308 -481 -577 -33 -122 -33 -347 0 -470 42 -160
162 -362 263 -443 l39 -31 -78 -18 c-43 -9 -96 -17 -118 -18 -22 0 -51 -7 -65
-15 -14 -8 -50 -15 -80 -15 -30 0 -66 -7 -80 -15 -14 -8 -42 -14 -62 -15 l-38
0 0 -145 0 -145 2185 0 2185 0 0 169 0 168 -52 9 c-29 4 -62 7 -73 6 -64 -9
-193 -7 -360 5 -104 8 -190 15 -192 17 -2 1 21 20 51 40 111 77 255 234 330
364 214 365 198 893 -37 1245 -137 205 -342 365 -557 435 -148 49 -345 70
-485 52z m367 -337 c263 -92 453 -293 530 -559 20 -68 23 -101 23 -244 0 -187
-16 -262 -81 -393 -103 -206 -250 -336 -462 -410 -74 -26 -106 -31 -212 -34
-158 -6 -243 11 -365 71 -165 82 -289 206 -369 370 -62 125 -77 188 -83 347
-6 147 4 231 39 333 78 227 226 392 444 492 114 53 171 64 319 61 115 -3 140
-7 217 -34z m-2231 -519 c149 -45 248 -124 311 -250 23 -46 39 -86 36 -89 -3
-3 -220 -4 -482 -3 l-477 3 40 80 c50 99 84 141 156 190 115 80 285 108 416
69z"/>
</g>
</svg>
